<?xml version="1.0" encoding="utf-8"?>
<!-- Generator: Adobe Illustrator 19.2.0, SVG Export Plug-In . SVG Version: 6.00 Build 0)  -->
<svg version="1.1" id="Слой_1" xmlns="http://www.w3.org/2000/svg" xmlns:xlink="http://www.w3.org/1999/xlink" x="0px" y="0px"
	 width="200px" height="200px" viewBox="0 0 200 200" style="enable-background:new 0 0 200 200;" xml:space="preserve">
<style type="text/css">
	.st0{enable-background:new    ;}
	.st1{fill:#343434;}
	.st2{fill:#EC0928;}
	.st3{fill:#818181;}
	.st4{fill:#C3C3C3;}
	.st5{fill:#FFFFFF;}
	.st6{opacity:0.8;enable-background:new    ;}
	.st7{fill:#707070;}
</style>
<g id="tw_1_" class="st0">
	<g id="tw">
		<g>
			<path class="st1" d="M60,12.9c-0.7,0.3-1.5,0.5-2.4,0.6c0.8-0.5,1.5-1.3,1.8-2.2c-0.8,0.5-1.7,0.8-2.6,1c-0.7-0.8-1.8-1.3-3-1.3
				c-2.3,0-4.1,1.8-4.1,4c0,0.3,0,0.6,0.1,0.9c-3.4-0.2-6.4-1.8-8.5-4.2c-0.4,0.6-0.6,1.3-0.6,2c0,1.4,0.7,2.6,1.8,3.4
				c-0.7,0-1.3-0.2-1.9-0.5c0,0,0,0,0,0c0,2,1.4,3.6,3.3,4c-0.3,0.1-0.7,0.1-1.1,0.1c-0.3,0-0.5,0-0.8-0.1c0.5,1.6,2,2.8,3.8,2.8
				c-1.4,1.1-3.2,1.7-5.1,1.7c-0.3,0-0.7,0-1-0.1c1.8,1.1,4,1.8,6.3,1.8C53.8,27,58,20.8,58,15.5c0-0.2,0-0.4,0-0.5
				C58.8,14.4,59.5,13.7,60,12.9z"/>
		</g>
	</g>
</g>
<g id="inst_1_" class="st0">
	<g id="inst">
		<g>
			<path class="st1" d="M79.5,23.2c2,0,3.6-1.6,3.6-3.6c0-2-1.6-3.6-3.6-3.6s-3.6,1.6-3.6,3.6C75.9,21.6,77.5,23.2,79.5,23.2z
				 M77.5,17.6c0.5-0.5,1.2-0.8,2-0.8c0.8,0,1.5,0.3,2,0.8c0.5,0.5,0.8,1.2,0.8,2c0,0.8-0.3,1.5-0.8,2c-0.5,0.5-1.2,0.8-2,0.8
				s-1.5-0.3-2-0.8c-0.5-0.5-0.8-1.2-0.8-2C76.7,18.8,77,18.1,77.5,17.6z M84.6,10H74.4c-0.2,0-0.5,0-0.7,0.1h0.7v4.4h-0.8v-4.4
				c-0.3,0.1-0.6,0.1-0.8,0.2v4.1h-0.8v-3.7c-1.2,0.8-1.9,2.1-1.9,3.6v1.5h5.9c0.9-0.9,2.2-1.5,3.6-1.5c1.4,0,2.6,0.6,3.6,1.5H89
				v-1.5C89,12,87,10,84.6,10z M86.7,14.5h-2.2v-2.2h2.2V14.5z M84.6,19.6c0,2.8-2.3,5.1-5.1,5.1c-2.8,0-5.1-2.3-5.1-5.1
				c0-1,0.3-2,0.8-2.8H70v7.9c0,2.4,2,4.4,4.4,4.4h10.3c2.4,0,4.4-2,4.4-4.4v-7.9h-5.3C84.3,17.5,84.6,18.5,84.6,19.6z"/>
		</g>
	</g>
</g>
<g id="fb_1_" class="st0">
	<g id="fb">
		<g>
			<path class="st1" d="M105.4,10L105.4,10c-1.8,0.1-3.3,1.6-3.3,3.4V17H100v3.3h2.1V28h3.7v-8.1h2.4l0.4-2.9h-2.8v-2.9h0
				c0,0,0,0,0-0.1c0-0.4,0.3-0.7,0.7-0.7h2.4v-1.2v-0.5V10H105.4z"/>
		</g>
	</g>
</g>
<g id="vk_1_" class="st0">
	<g id="vk">
		<g>
			<path class="st1" d="M149.6,22.1c-1.5-1.5-1.6-1.5-0.3-3.3c1.7-2.2,3.8-5.1,1.9-5.1c-0.4,0-0.1,0-3.6,0c-0.7,0-0.8,0.4-1,1
				c-0.9,2.2-2.6,5.1-3.3,4.7c-0.7-0.5-0.4-2-0.3-4.7c0-0.7,0-1.2-1-1.5c-2.9-0.7-5.4,0.7-4.4,0.9c1.4,0.3,1.3,3.2,1,4.6
				c-0.6,2.4-2.8-1.9-3.7-4.1c-0.2-0.5-0.3-0.9-1.1-0.9c-0.4,0-2.3,0-3,0c-0.6,0-0.9,0.3-0.7,0.8c0.2,0.6,2.5,5.9,5.2,8.9
				c2.5,2.8,5,2.6,6.8,2.6c0.6,0,0.8-0.4,0.8-0.9c0-1.8,0.7-2.8,1.9-1.5c1.4,1.4,1.6,2.4,3.3,2.4c0.6,0,2.3,0,2.9,0
				C153.3,26,151.2,23.6,149.6,22.1z"/>
		</g>
	</g>
</g>
<g id="иконка_13_" class="st0">
	<g id="иконка_2_">
		<g>
			<path class="st1" d="M19,166h-4v1h4V166z M19,168h-4v1h4V168z M21,163v-3h-8v3h-3v6h3v3h8v-3h3v-6H21z M20,171h-6v-6h6V171z
				 M20,163h-6v-2h6V163z"/>
		</g>
	</g>
</g>
<g id="иконка_12_" class="st0">
	<g id="иконка_3_">
		<g>
			<path class="st2" d="M140.2,134.6c0,0,1.6-4.6,1.3-4.6c-2.1,0.1-3.1,1-4.5,1.4c-1.1,0.5-4-0.5-4-0.5l2.9,9.7c0,0,2.3-0.9,3.8-1.6
				s1-1.4,2.3-1.6c0.2,0,1.9,0,2.1,0.1L140.2,134.6z M130.6,130.9l-0.4,0.1c0.1,0.2,0,0.5-0.3,0.6l4.5,14.1c0.2-0.1,0.5,0.1,0.6,0.3
				l0.4-0.1c-0.1-0.2,0-0.5,0.3-0.6l-4.5-14.1C131,131.3,130.7,131.2,130.6,130.9z"/>
		</g>
	</g>
</g>
<g id="иконкс_редактирования_1_" class="st0">
	<g id="иконкс_редактирования">
		<g>
			<path class="st3" d="M81.5,160.5c-0.7-0.7-1.8-0.7-2.5,0l-8.9,8.9c-0.1,0.1-0.1,0.2-0.1,0.3l0,0.3l0,0v2h2v0h0.3l0,0
				c0.1,0,0.2,0,0.3-0.1c0.1-0.1,7.3-7.4,8.7-8.7l0.2-0.2c0.3-0.3,0.5-0.8,0.5-1.2C82,161.3,81.8,160.8,81.5,160.5z M72.1,171.2H72
				V170h-1.2v-0.2c0.7-0.7,4.7-4.7,7-7.1l1.3,1.3L72.1,171.2z M79.8,163.5l-1.3-1.3l0.4-0.4l1.3,1.3L79.8,163.5z M80.9,162.4
				l-0.2,0.2l-1.3-1.3c0.1-0.1,0.2-0.2,0.2-0.2c0.3-0.3,1-0.3,1.3,0c0.2,0.2,0.3,0.4,0.3,0.7C81.2,162,81.1,162.2,80.9,162.4z"/>
		</g>
	</g>
</g>
<g id="войти_1_" class="st0">
	<g id="войти">
		<g>
			<path class="st1" d="M106.2,79.4l2.9-2.9l-2.9-2.9v1.9h-6v1.6h6V79.4z M103.2,70.1v3.5h1.7v-1.9h7.1v9.8H105v-1.9h-1.7v3.5h10.6
				V70.1H103.2z"/>
		</g>
	</g>
</g>
<g id="стрелка_7_" class="st0">
	<g id="стрелка">
		<g>
			<polygon class="st4" points="57.5,109 49,100.5 40.5,109 41.2,109.7 49,101.9 56.8,109.7 			"/>
		</g>
	</g>
</g>
<g id="стрелка_6_" class="st0">
	<g id="стрелка_1_">
		<g>
			<polygon class="st1" points="84.6,107 77.5,99.9 76.8,100.6 76.8,100.6 70.5,107 71.2,107.7 77.5,101.3 83.9,107.7 			"/>
		</g>
	</g>
</g>
<g id="стрелка_5_" class="st0">
	<g id="стрелка_2_">
		<g>
			<polygon class="st5" points="168.1,107 167.4,106.3 167.4,106.3 161,99.9 160.3,100.6 166.7,107 160.3,113.4 161,114.1 
				167.4,107.7 167.4,107.7 			"/>
		</g>
	</g>
</g>
<g id="стрелка_4_" class="st0">
	<g id="стрелка_3_">
		<g>
			<polygon class="st5" points="137.7,100.6 137,99.9 130.6,106.3 130.6,106.3 129.9,107 130.6,107.7 130.6,107.7 137,114.1 
				137.7,113.4 131.3,107 			"/>
		</g>
	</g>
</g>
<g id="крестик_1_" class="st6">
	<g id="крестик">
		<g>
			<polygon class="st1" points="115.4,101.6 114.2,100.4 108,106.8 101.8,100.4 100.6,101.7 106.8,108.1 100.5,114.5 101.6,115.6 
				107.9,109.2 114.1,115.6 115.4,114.4 109.2,108 			"/>
		</g>
	</g>
</g>
<g id="иконка_11_" class="st0">
	<g id="иконка_4_">
		<g>
			<path class="st5" d="M195.1,130h-33.3c-1,0-1.9,0.8-1.9,1.8v21.3c0,1,0.8,1.8,1.9,1.8h33.3c1,0,1.9-0.8,1.9-1.8v-21.3
				C197,130.8,196.2,130,195.1,130z M178.8,149.6c-3.8,0-6.9-3.1-6.9-6.8c0-3.8,3.1-6.8,6.9-6.8c3.8,0,6.9,3.1,6.9,6.8
				C185.7,146.6,182.6,149.6,178.8,149.6z M182.1,142.7l-4.6-2.7c-0.1-0.1-0.3-0.1-0.4,0c-0.1,0.1-0.2,0.2-0.2,0.3v5.5
				c0,0.1,0.1,0.3,0.2,0.3c0.1,0.1,0.3,0.1,0.4,0l4.6-2.7c0.1-0.1,0.2-0.2,0.2-0.3C182.3,142.8,182.2,142.7,182.1,142.7z"/>
		</g>
	</g>
</g>
<g id="иконка_10_" class="st0">
	<g id="иконка_5_">
		<g>
			<path class="st3" d="M46,160h-2v1h2V160z M44,168h2v-2h-2V168z M47,171h2v-2h-2V171z M44,171h2v-2h-2V171z M50,168h2v-2h-2V168z
				 M56,173v-13c0,0-0.9,0-2,0h-1v1c0,0.6,0,1-0.5,1h-3c-0.6,0-0.5-0.4-0.5-1v-1h-2v1c0,0.6,0.1,1-0.4,1h-3.2c-0.6,0-0.3-0.4-0.3-1
				v-1h-1c-1.1,0-2,0-2,0v13v2h16V173z M54,172c0,0.6,0,1,0,1H42c0,0,0-0.4,0-1v-8c0,0,0.4,0,1,0h10c0.6,0,1,0,1,0V172z M47,168h2
				v-2h-2V168z M50,171h2v-2h-2V171z M52,160h-2v1h2V160z"/>
		</g>
	</g>
</g>
<g id="иконка_7_" class="st0">
	<g id="иконка_6_">
		<g>
			<path class="st2" d="M110,138h-1v-1v-1v-3h-2v4v1v1h1v1h1v1h1v-1h1v-1h-1L110,138L110,138z M108,130c-4.4,0-8,3.6-8,8
				c0,4.4,3.6,8,8,8c4.4,0,8-3.6,8-8S112.4,130,108,130z M108,144c-3.4,0-6.1-2.7-6.1-6.1c0-3.4,2.7-6.1,6.1-6.1s6.1,2.7,6.1,6.1
				S111.4,144,108,144z"/>
		</g>
	</g>
</g>
<g id="иконка_9_" class="st0">
	<g id="иконка_8_">
		<g>
			<path class="st2" d="M82.8,138.5c-1.1,1.8-1.6,2.3-1.8,2.4v-1.2c0.1-0.5,0.1-0.8,0.1-0.9c0-1.3,0.1-2.2-0.6-2.7
				c0.1,0.2,0.2,0.4,0.2,0.7c0,0.5-0.2,1-0.6,1.7h0v-1.1c0-0.8-0.1-1.5-0.4-2.3c-0.1-0.4-0.4-0.8-0.7-1.2c-0.4-0.5-0.7-0.7-1.1-0.8
				c0.3,0.5,0.4,1,0.4,1.4c0,0,0,0.2,0,0.4c0,0.2,0,0.4,0,0.5v0.2h0l-0.7-2.2c-0.7-1.1-1.2-2.3-1.5-3.6c-0.4,0.3-0.5,0.8-0.5,1.7
				c0,0.1,0,0.3,0.1,0.5c0,0.3,0.1,0.5,0.1,0.7c0,0.6-0.1,1.1-0.3,1.5c-0.4-0.6-0.9-1.1-1.4-1.3c0.3,0.6,0.5,1.3,0.5,2.2
				c0,0.3-0.1,0.7-0.3,1.4l-0.2,0.8h-0.1c-0.3-1-0.8-1.5-1.7-1.7c0.5,0.5,0.7,1.1,0.7,1.8c0,0.1-0.1,0.8-0.2,1.9l-0.1,0.6
				C72,139.2,71,139,70,139c0,1,1.9,1.7,1.9,2.7c0,1.3,0.1,2.2,0.4,2.7c0.4,0.8,1,1.3,2.2,1.5c0.6,0.1,1,0,1.4-0.2
				c-0.6-0.2-1-0.5-1.5-1c-0.4-0.5-0.6-1.1-0.6-1.7c0-0.6,0.1-1.1,0.3-1.7h0c0.3,1.6,0.9,2.5,1.8,2.6c-0.4-0.7-0.7-1.3-0.7-1.9
				c0-0.6,0.1-1.1,0.3-1.6l0,0c0.1,0.6,0.3,1,0.5,1.2c0.2,0.2,0.3,0.4,0.3,0.7l0.3-1c0.1-0.3,0.2-0.8,0.2-1.4v-1.4h0l0.5,0.9
				c0.2,0.5,0.3,0.9,0.3,1.2c0,0.2-0.1,0.5-0.2,0.9s-0.2,0.6-0.2,0.8c0,0.2,0,0.3,0.1,0.3l0.5-0.6c0.5-0.5,0.8-1,0.8-1.4
				c0.1,0.1,0.1,0.3,0.1,0.7c0,0.4-0.1,0.7-0.3,1.2l-0.3,0.8l1-1c-0.1,0.6-0.4,1.3-0.9,2c-0.6,0.7-1.2,1.1-1.8,1.3
				c0.5,0.2,1,0.3,1.5,0.3c1.2,0,2.2-0.4,2.9-1.3c0.7-0.8,1.4-1.9,1.4-3.1C82.4,141,83,139.8,82.8,138.5z"/>
		</g>
	</g>
</g>
<g id="плюс_1_" class="st0">
	<g id="плюс">
		<g>
			<polygon class="st1" points="175,17 168,17 168,10 167,10 167,17 160,17 160,18 167,18 167,25 168,25 168,18 175,18 			"/>
		</g>
	</g>
</g>
<g id="стрелка_левая_2_" class="st0">
	<g id="стрелка_левая_1_">
		<g>
			<polygon class="st1" points="114,40 100,49.5 114,59 114,55.5 104.7,49.5 114,43.5 			"/>
		</g>
	</g>
</g>
<g id="стрелка_правая_2_" class="st0">
	<g id="стрелка_правая_1_">
		<g>
			<polygon class="st1" points="130,40 130,43.5 139.3,49.5 130,55.5 130,59 144,49.5 			"/>
		</g>
	</g>
</g>
<g id="иконка_лк_1_" class="st0">
	<g id="иконка_лк">
		<g>
			<path class="st1" d="M21.9,79.9L21.9,79.9c-0.8-0.2-1.4-0.4-1.7-0.5c-1.2-0.5-1.5-0.8-1.6-0.9c-0.1-0.2-0.1-0.6,0.2-1
				c0.1-0.1,0.2-0.3,0.3-0.4l0.1-0.1c0.2-0.4,0.5-0.9,0.6-1.3c0.2-0.6,0.3-1.2,0.3-1.8c0-0.5-0.1-1-0.3-1.5
				c-0.2-0.5-0.4-0.9-0.8-1.2c-0.7-0.7-1.5-1.1-2.4-1.1c-0.9,0-1.8,0.4-2.4,1.1c-0.3,0.4-0.6,0.8-0.8,1.2c-0.2,0.5-0.3,1-0.3,1.5
				c0,0.6,0.1,1.2,0.3,1.8c0.1,0.5,0.3,0.9,0.6,1.3L14,77c0.1,0.1,0.2,0.3,0.3,0.4c0.2,0.4,0.3,0.8,0.2,1c-0.1,0.2-0.4,0.5-1.6,0.9
				c-0.3,0.1-0.9,0.3-1.6,0.5l-0.1,0c-0.7,0.2-1.1,0.9-1.1,1.6V83h13v-1.5C23,80.7,22.5,80.1,21.9,79.9z"/>
		</g>
	</g>
</g>
<g id="иконка_избранное_1_" class="st0">
	<g id="иконка_избранное">
		<g>
			<path class="st1" d="M49.4,70c-0.6,0-1.3,0.2-1.8,0.5c-0.4,0.2-0.7,0.5-1,0.9l-0.1,0.1l-0.1-0.1c-0.3-0.4-0.6-0.7-1-0.9
				c-0.5-0.3-1.2-0.5-1.8-0.5c-2,0-3.5,1.7-3.6,3.9c0,1.1,0.3,2.2,1,3.3c0.5,0.9,1.3,1.7,2.2,2.5c1.6,1.4,3.2,2.2,3.2,2.2l0.1,0.1
				l0.1-0.1c0.1,0,1.6-0.8,3.2-2.2c0.9-0.8,1.7-1.7,2.2-2.5c0.7-1.1,1-2.2,1-3.3C52.9,71.7,51.4,70,49.4,70z"/>
		</g>
	</g>
</g>
<g id="иконка_корзина_1_" class="st0">
	<g id="иконка_корзина">
		<g>
			<path class="st1" d="M75.9,78.4v-1.6l10.5-0.3v-5.6H73.9V70h-3L70,71.4h2.8l1.2,5.4l0.5,0v1.6h-0.9v1.4H87v-1.4L75.9,78.4
				L75.9,78.4z M85.7,80.5c-0.7,0-1.3,0.6-1.3,1.3S85,83,85.7,83s1.3-0.6,1.3-1.3S86.4,80.5,85.7,80.5z M74.9,80.5
				c-0.7,0-1.3,0.6-1.3,1.3s0.6,1.3,1.3,1.3c0.7,0,1.3-0.6,1.3-1.3S75.6,80.5,74.9,80.5z"/>
		</g>
	</g>
</g>
<g id="иконка_поиск_1_" class="st0">
	<g id="иконка_поиск">
		<g>
			<path class="st5" d="M20.3,131.6c-1.8-1.8-4.7-1.8-6.5,0c-1.6,1.6-1.8,4-0.6,5.8l-2.9,2.9l1.5,1.5l2.9-2.9
				c1.8,1.1,4.1,0.9,5.7-0.7C22.1,136.4,22.1,133.4,20.3,131.6z M18.9,136.7c-1,1-2.7,1-3.7,0s-1-2.7,0-3.7s2.7-1,3.7,0
				C19.9,134.1,19.9,135.7,18.9,136.7z"/>
		</g>
	</g>
</g>
<g id="иконка_телефон_1_" class="st0">
	<g id="иконка_телефон">
		<g>
			<path class="st1" d="M18.3,48.1c0,0-1,0.8-1,0.8c-1.1,0.9-4.6-3.7-3.5-4.6l1-0.8L12.1,40c0,0-1,0.8-1,0.8
				c-0.7,0.6-2.6,2.1,1.8,7.9c4.5,5.9,6.3,4.2,7.1,3.7c0.1,0,1-0.8,1-0.8L18.3,48.1z"/>
		</g>
	</g>
</g>
<g id="иконка_телефон_футер_1_" class="st0">
	<g id="иконка_телефон_футер">
		<g>
			<path class="st1" d="M20.6,20.5c0,0-1.2,1-1.3,1.1c-1.4,1.1-5.9-4.8-4.5-6l1.3-1.1L12.6,10c0,0-1.3,1.1-1.3,1.1
				c-0.9,0.8-3.4,2.7,2.4,10.3c5.8,7.7,8,5.6,9,4.8c0.1-0.1,1.3-1.1,1.3-1.1L20.6,20.5z"/>
		</g>
	</g>
</g>
<g>
	<path class="st5" d="M62.5,42c-0.8,0.4-1.8,0.6-2.7,0.7c1-0.6,1.7-1.5,2.1-2.6c-0.9,0.5-1.9,0.9-3,1.1c-0.9-0.9-2.1-1.5-3.4-1.5
		c-2.6,0-4.7,2.1-4.7,4.6c0,0.4,0,0.7,0.1,1.1c-3.9-0.2-7.4-2-9.7-4.8c-0.4,0.7-0.6,1.5-0.6,2.3c0,1.6,0.8,3,2.1,3.9
		c-0.8,0-1.5-0.2-2.1-0.6c0,0,0,0,0,0.1c0,2.2,1.6,4.1,3.8,4.6C43.8,51,43.4,51,43,51c-0.3,0-0.6,0-0.9-0.1c0.6,1.8,2.3,3.2,4.4,3.2
		c-1.6,1.2-3.6,2-5.8,2c-0.4,0-0.8,0-1.1-0.1c2.1,1.3,4.6,2.1,7.2,2.1c8.7,0,13.4-7.1,13.4-13.2c0-0.2,0-0.4,0-0.6
		C61,43.7,61.8,42.9,62.5,42z"/>
</g>
<polygon class="st1" points="183.3,40 186.8,44 190.3,40 "/>
<g>
	<path d="M49.8,131.1c-1.8-1.8-4.7-1.8-6.5,0c-1.6,1.6-1.8,4-0.6,5.8l-2.9,2.9l1.5,1.5l2.9-2.9c1.8,1.1,4.1,0.9,5.7-0.7
		C51.6,135.9,51.6,132.9,49.8,131.1z M48.4,136.2c-1,1-2.7,1-3.7,0c-1-1-1-2.7,0-3.7c1-1,2.7-1,3.7,0
		C49.4,133.6,49.4,135.2,48.4,136.2z"/>
</g>
<polygon class="st1" points="168.2,41.3 166.8,39.8 163.4,43.3 161.2,41.1 159.8,42.6 163.3,46.2 163.4,46.1 163.4,46.2 "/>
<g>
	<g>
		<path class="st5" d="M77.6,49.7v-4.1h0c0,0,0-0.1,0-0.1c0-0.5,0.4-1,1-1h3.4v-1.7v-0.6V40h-5v0c-2.6,0.2-4.6,2.3-4.6,4.8v4.9h-2.9
			v4.6h2.9V65h5.2V53.8h3.4l0.5-4H77.6z"/>
	</g>
</g>
<g>
	<path class="st5" d="M111.9,174.7c0.7,0,1.1-0.5,1-1.2c0-2.4,0.9-3.7,2.5-2c1.8,1.9,2.2,3.2,4.4,3.2c0.8,0,3.1,0,3.9,0
		c3.1,0,0.3-3.2-1.8-5.3c-2.1-2-2.2-2-0.4-4.4c2.2-3,5.1-6.8,2.5-6.8c-0.5,0-0.1,0-4.9,0c-0.9,0-1,0.6-1.4,1.4
		c-1.2,3-3.5,6.8-4.4,6.2c-0.9-0.6-0.5-2.7-0.4-6.3c0-1,0-1.6-1.4-1.9c-3.9-0.9-7.2,0.9-5.8,1.2c1.9,0.4,1.7,4.3,1.3,6.2
		c-0.8,3.2-3.7-2.6-5-5.5c-0.3-0.7-0.4-1.3-1.4-1.3c-0.6,0-3.1,0-4,0c-0.8,0-1.1,0.4-0.9,1.1c0.3,0.7,3.4,7.9,7,11.9
		C106.3,175,109.6,174.7,111.9,174.7z"/>
</g>
<polygon class="st7" points="142.2,71.9 140.4,70.1 130,80.5 130,80.5 140.4,90.9 142.2,89.1 133.6,80.5 "/>
<polygon class="st7" points="161,89 162.7,90.8 173,80.5 173,80.5 162.7,70.2 161,72 169.4,80.5 "/>
</svg>
